Patient4_TMGait_0pt8_01_left_32_GRF.mot
version=1
nRows=39
nColumns=19
inDegrees=no
endheader
time	F1x	F1y	F1z	M1x	M1y	M1z	F2x	F2y	F2z	M2x	M2y	M2z	EC1x	EC1y	EC1z	EC2x	EC2y	EC2z
35.21	1.6873	4.7234	3.2191	-2.2713	-3.9041	7.5133	-50.6845	735.294	-74.6627	283.6061	98.4765	857.1886	-0.0592	0.0182	-0.0073	-0.0462	0.0165	0.9585
35.2214	0.82361	4.0132	2.2447	-1.8326	-2.8312	5.9331	-50.7156	731.4649	-70.4194	280.1574	95.3861	848.2359	-0.0592	0.0182	-0.0073	-0.0462	0.0165	0.9585
35.2327	0.1479	3.4434	1.4143	-1.4689	-1.8953	4.6188	-50.1801	728.1128	-66.7436	276.9994	92.3405	839.1761	-0.0592	0.0182	-0.0073	-0.0462	0.0165	0.9585
35.2441	-0.31657	3.054	0.77375	-1.2008	-1.1583	3.6566	-49.0261	725.513	-63.8479	274.3663	89.4644	830.4755	-0.0592	0.0182	-0.0073	-0.0462	0.0165	0.9585
35.2554	-0.61545	2.8395	0.32277	-1.0266	-0.63135	3.0588	-47.2886	723.7459	-61.6783	272.3429	86.7415	822.3526	-0.0592	0.0182	-0.0073	-0.0462	0.0165	0.9585
35.2668	-0.78025	2.7708	0.041604	-0.93294	-0.2917	2.7706	-44.9876	722.7025	-60.0848	270.8937	84.1033	814.7625	-0.0592	0.0182	-0.0073	-0.0462	0.0165	0.9585
35.2781	-0.86869	2.7949	-0.10561	-0.89655	-0.10519	2.7163	-42.1192	722.1583	-58.8756	269.907	81.4404	807.4903	-0.0592	0.0182	-0.0073	-0.0462	0.0165	0.9585
35.2895	-0.92051	2.8367	-0.15224	-0.88629	-0.039542	2.7627	-38.6137	721.8599	-57.8911	269.2419	78.6456	800.2487	-0.0592	0.0182	-0.0073	-0.0462	0.0165	0.9585
35.3009	-0.97683	2.8063	-0.13115	-0.86343	-0.065742	2.7723	-34.3734	721.6131	-57.0117	268.7746	75.6269	792.81	-0.0592	0.0182	-0.0073	-0.0462	0.0165	0.9585
35.3122	-1.0569	2.6058	-0.0554	-0.78636	-0.17502	2.5895	-29.2847	721.3513	-56.1503	268.4343	72.3044	785.0845	-0.0592	0.0182	-0.0073	-0.0462	0.0165	0.9585
35.3236	-1.1892	2.1308	0.06259	-0.61131	-0.36385	2.0681	-23.2907	721.2125	-55.2871	268.2349	68.6619	777.2048	-0.0592	0.0182	-0.0073	-0.0462	0.0165	0.9585
35.3349	-1.353	1.2757	0.22668	-0.2954	-0.6328	1.0675	-16.4079	721.5628	-54.4407	268.2844	64.7316	769.5771	-0.0592	0.0182	-0.0073	-0.0462	0.0165	0.9585
35.3463	-1.5309	-0.049484	0.42171	0.19606	-0.9565	-0.52739	-8.7815	722.9406	-53.6863	268.7582	60.6345	762.8332	-0.0592	0.0182	-0.0073	-0.0462	0.0165	0.9585
35.3576	-1.6649	-1.8886	0.63742	0.87731	-1.2962	-2.7724	-0.69795	725.8651	-53.1475	269.8271	56.5821	757.6107	-0.0592	0.0182	-0.0073	-0.0462	0.0165	0.9585
35.369	-1.6711	-4.1706	0.82484	1.7189	-1.5601	-5.5731	7.438	730.61	-52.9633	271.5731	52.8435	754.3021	-0.0592	0.0182	-0.0073	-0.0462	0.0165	0.9585
35.3804	-1.4359	-6.6562	0.92248	2.6281	-1.6191	-8.6296	15.1305	737.072	-53.259	273.9385	49.7067	752.9292	-0.0592	0.0182	-0.0073	-0.0462	0.0165	0.9585
35.3917	-0.78785	-8.8286	0.83156	3.4087	-1.2811	-11.3052	21.9143	744.7123	-54.0989	276.7075	47.3973	753.0592	-0.0592	0.0182	-0.0073	-0.0462	0.0165	0.9585
35.4031	0.46723	-9.819	0.43487	3.7327	-0.31803	-12.5412	27.4517	752.6728	-55.4451	279.5495	46.0019	753.926	-0.0592	0.0182	-0.0073	-0.0462	0.0165	0.9585
35.4144	2.5467	-8.336	-0.42151	3.1148	1.5452	-10.7634	31.6292	759.9353	-57.1893	282.081	45.4674	754.5558	-0.0592	0.0182	-0.0073	-0.0462	0.0165	0.9585
35.4258	5.6327	-2.6365	-1.8991	0.90401	4.5808	-3.8372	34.5108	765.5517	-59.1279	283.9485	45.5875	754.0291	-0.0592	0.0182	-0.0073	-0.0462	0.0165	0.9585
35.4371	9.7922	9.3834	-4.141	-3.6902	8.9828	10.8011	36.3255	768.7241	-61.0272	284.8623	46.0738	751.5713	-0.0592	0.0182	-0.0073	-0.0462	0.0165	0.9585
35.4485	14.8478	29.9795	-7.206	-11.5139	14.7444	35.921	37.3454	768.8337	-62.629	284.6017	46.5944	746.5796	-0.0592	0.0182	-0.0073	-0.0462	0.0165	0.9585
35.4599	20.2511	61.104	-10.9817	-23.2893	21.4975	73.9204	37.8767	765.3144	-63.675	282.9711	46.8087	738.5009	-0.0592	0.0182	-0.0073	-0.0462	0.0165	0.9585
35.4712	24.8554	103.6497	-15.0966	-39.3218	28.3219	125.904	38.166	757.4758	-63.9263	279.7335	46.4124	726.6961	-0.0592	0.0182	-0.0073	-0.0462	0.0165	0.9585
35.4826	26.856	156.373	-18.7518	-59.1032	33.5309	190.3726	38.4491	744.3363	-63.1769	274.5511	45.1371	710.2251	-0.0592	0.0182	-0.0073	-0.0462	0.0165	0.9585
35.4939	24.3324	215.1007	-20.7439	-81.0091	34.9154	262.2849	38.878	724.7295	-61.31	267.0206	42.8208	687.9851	-0.0592	0.0182	-0.0073	-0.0462	0.0165	0.9585
35.5053	16.723	272.6754	-19.4904	-102.2908	30.3436	332.8923	39.512	697.6669	-58.2578	256.8046	39.386	659.0574	-0.0592	0.0182	-0.0073	-0.0462	0.0165	0.9585
35.5166	6.5466	322.2622	-13.792	-120.3754	19.493	393.7153	40.2617	662.6309	-54.1012	243.7328	34.9541	623.0022	-0.0592	0.0182	-0.0073	-0.0462	0.0165	0.9585
35.528	-3.9136	361.592	-5.479	-134.47	5.3563	441.6321	40.9897	619.8591	-49.0036	227.8917	29.7421	580.1017	-0.0592	0.0182	-0.0073	-0.0462	0.0165	0.9585
35.5394	-13.0531	391.5367	4.1594	-144.9683	-9.8343	477.5379	41.5085	570.2193	-43.274	209.5907	24.1066	531.2467	-0.0592	0.0182	-0.0073	-0.0462	0.0165	0.9585
35.5507	-20.2513	414.7872	13.8249	-152.9437	-24.2353	504.713	41.6578	515.0764	-37.2461	189.3161	18.4121	477.7527	-0.0592	0.0182	-0.0073	-0.0462	0.0165	0.9585
35.5621	-25.2624	434.4226	22.1934	-159.6047	-36.2172	526.9331	41.1506	456.1474	-31.1417	167.684	12.957	421.2881	-0.0592	0.0182	-0.0073	-0.0462	0.0165	0.9585
35.5734	-28.5253	452.7365	28.8389	-165.8327	-45.3492	547.207	39.762	395.2997	-25.1802	145.3739	8.0215	363.5935	-0.0592	0.0182	-0.0073	-0.0462	0.0165	0.9585
35.5848	-30.3898	471.2219	33.1825	-172.2011	-51.1677	567.2184	37.2291	334.6175	-19.4964	123.1387	3.8106	306.6123	-0.0592	0.0182	-0.0073	-0.0462	0.0165	0.9585
35.5961	-31.2181	490.7762	35.8013	-178.9949	-54.4392	588.2408	33.5201	276.1613	-14.3103	101.7297	0.52742	252.1883	-0.0592	0.0182	-0.0073	-0.0462	0.0165	0.9585
35.6075	-31.1738	512.1732	37.1227	-186.4406	-55.8078	611.0929	28.7371	222.0194	-9.8184	81.8925	-1.7121	202.2006	-0.0592	0.0182	-0.0073	-0.0462	0.0165	0.9585
35.6189	-30.5426	535.8396	38.1214	-194.6071	-56.5068	636.394	23.3091	173.8098	-6.2369	64.2151	-2.8873	157.9794	-0.0592	0.0182	-0.0073	-0.0462	0.0165	0.9585
35.6302	-29.5377	561.552	39.6131	-203.357	-57.5905	663.8624	17.7337	132.6381	-3.6822	49.0907	-3.0987	120.4443	-0.0592	0.0182	-0.0073	-0.0462	0.0165	0.9585
35.6416	-28.6914	588.6221	42.1601	-212.407	-59.8978	692.6863	12.5562	98.7421	-2.1238	36.6157	-2.5739	89.655	-0.0592	0.0182	-0.0073	-0.0462	0.0165	0.9585
